# xmcd
#
# Track frame offsets:
#	150
#	10047
#	20597
#	36232
#	47780
#	60230
#	71165
#	83897
#	93820
#	104027
#
# Disc length: 1600 seconds
#
# Revision: 0
# Processed by: cddbd v1.4PL0 Copyright (c) Steve Scherf et al.
# Submitted via: EasyCDDAExtractor 4.6.0.1
#
DISCID=7b063e0a
DTITLE=Banda Arkangel R-15 - Los Reyes De La Quebradita
DYEAR=1999
DGENRE=Latin
TTITLE0=Aviso Del Cielo
TTITLE1=Baileme Quebradito
TTITLE2=Amor Chiquito
TTITLE3=Me Gustas Mucho
TTITLE4=La Gitanita
TTITLE5=Al Mismo Nivel
TTITLE6=El Merecumbe
TTITLE7=Que Cancion De Canto
TTITLE8=El Fuereño
TTITLE9=Fue Tan Poco Tu Cariño
EXTD=
EXTT0=
EXTT1=
EXTT2=
EXTT3=
EXTT4=
EXTT5=
EXTT6=
EXTT7=
EXTT8=
EXTT9=
PLAYORDER=
